<?xml version="1.0" encoding="utf-8"?>
<!-- Generator: Adobe Illustrator 16.0.0, SVG Export Plug-In . SVG Version: 6.00 Build 0)  -->
<!DOCTYPE svg PUBLIC "-//W3C//DTD SVG 1.1//EN" "http://www.w3.org/Graphics/SVG/1.1/DTD/svg11.dtd">
<svg version="1.1" id="Layer_1" xmlns="http://www.w3.org/2000/svg" xmlns:xlink="http://www.w3.org/1999/xlink" x="0px" y="0px"
	 width="457.292px" height="361.458px" viewBox="0 0 457.292 361.458" enable-background="new 0 0 457.292 361.458"
	 xml:space="preserve">
<g>
	<path fill-rule="evenodd" clip-rule="evenodd" d="M359.235,224.494c0,8.781,0,21.98,0,42.336c0,46.807,36.813,88.004,36.813,88.004
		h-36.813c0,0-36.813-41.197-36.813-88.004c0-18.725,0-31.144,0-39.911c-39.299-3.299-72.949-25.66-92.082-58.288
		c-19.155,32.371-52.79,54.912-91.982,58.268c0,8.371,0,20.122,0,37.341c0,47.869-36.813,90.593-36.813,90.593H64.733
		c0,0,36.813-42.725,36.813-90.593c0-18.708,0-31.259,0-39.684c-52.673-12.386-92.032-60.04-92.032-117.245
		c0-43.48,22.889-81.259,56.903-102.478c-19.68,19.386-32.246,47.041-32.246,78.08c0,58.544,43.931,106.005,98.123,106.005
		c36.335,0,67.698-21.582,84.658-53.288c-2.174-9.125-3.642-18.517-3.642-28.319c0-19.441,4.961-37.543,13.019-53.806
		c2.774-5.223,3.963-7.397,3.963-7.397s1.524,2.64,3.964,7.399c8.058,16.261,13.02,34.363,13.02,53.804
		c0,9.79-1.512,19.139-3.687,28.229c16.947,31.756,48.332,53.378,84.703,53.378c54.19,0,98.122-47.46,98.122-106.005
		c0-31.037-12.566-58.694-32.245-78.079c34.013,21.22,56.901,58.999,56.901,102.477
		C451.069,164.442,411.806,212.032,359.235,224.494z"/>
	<circle fill-rule="evenodd" clip-rule="evenodd" cx="359.235" cy="115.552" r="36.813"/>
	<circle fill-rule="evenodd" clip-rule="evenodd" cx="101.546" cy="115.552" r="36.813"/>
	<path fill-rule="evenodd" clip-rule="evenodd" d="M230.389,318.022c10.167,0,18.408,8.238,18.408,18.404
		s-8.241,18.407-18.408,18.407c-10.162,0-18.403-8.241-18.403-18.407S220.227,318.022,230.389,318.022z"/>
</g>
</svg>
